<?xml version="1.0" encoding="UTF-8"?>
<svg version="1.1" xmlns="http://www.w3.org/2000/svg" width="2000" height="2000">
<path d="M0 0 C660 0 1320 0 2000 0 C2000 660 2000 1320 2000 2000 C1340 2000 680 2000 0 2000 C0 1340 0 680 0 0 Z " fill="#0097B2" transform="translate(0,0)"/>
<path d="M0 0 C381.15 0 762.3 0 1155 0 C1155 381.15 1155 762.3 1155 1155 C1035.54 1155 916.08 1155 793 1155 C793 977.79 793 800.58 793 618 C786.66055098 623.50981818 786.66055098 623.50981818 780.61444855 629.26135296 C779.45006448 630.42236608 779.45006448 630.42236608 778.2621575 631.60683402 C777.43447487 632.43714367 776.60679224 633.26745331 775.75402832 634.12292385 C774.40045767 635.47476374 774.40045767 635.47476374 773.01954216 636.85391352 C770.52379554 639.3466085 768.03115662 641.84239061 765.53902988 644.33870393 C762.82394224 647.05723982 760.1059377 649.77285683 757.38830662 652.4888497 C752.62881629 657.24627001 747.87118096 662.00553905 743.11476326 666.76603127 C736.04216479 673.84467151 728.96669411 680.92043559 721.89063565 687.99561689 C709.9869358 699.89800357 698.08556287 711.80271438 686.18551636 723.70875359 C674.40372781 735.49646006 662.62090498 747.28313109 650.83670044 759.06842232 C650.10387291 759.80131859 649.37104538 760.53421486 648.61601096 761.2893201 C644.89431356 765.01135584 641.17259768 768.7333731 637.45087469 772.45538325 C611.09301597 798.81534213 584.73747626 825.1776185 558.38330078 851.54125977 C532.78128525 877.1524603 507.17821909 902.76260979 481.57373047 928.37133789 C480.7844271 929.16077278 479.99512373 929.95020768 479.18190208 930.76356484 C471.25535993 938.69142552 463.32879643 946.61926483 455.40221728 954.54708851 C439.25500025 970.69684171 423.10792578 986.84673744 406.9609375 1002.99671936 C406.21853218 1003.73926197 405.47612686 1004.48180458 404.71122441 1005.24684848 C355.13842809 1054.82884477 305.56895477 1104.41416321 256 1154 C252.54664191 1152.36667215 250.28509926 1150.5338916 247.57223129 1147.81832695 C246.24356147 1146.49563028 246.24356147 1146.49563028 244.88804984 1145.14621246 C243.90930617 1144.16176278 242.93065536 1143.17722078 241.9520874 1142.19259644 C240.9096123 1141.15099329 239.86669787 1140.10982968 238.82338166 1139.06906903 C235.95470948 1136.20487613 233.09232293 1133.33447211 230.2309041 1130.46303535 C227.14526031 1127.36876776 224.05385244 1124.28026858 220.96313477 1121.19107056 C215.60804979 1115.83703511 210.25664361 1110.47934522 204.90770721 1105.11916733 C197.17400527 1097.36922257 189.43479729 1089.62479564 181.69422725 1081.88171138 C169.13631232 1069.31941743 156.58287172 1056.75266213 144.03222656 1044.18310547 C131.83925518 1031.97178064 119.6441884 1019.76255473 107.44628906 1007.55615234 C106.31878108 1006.42785619 106.31878108 1006.42785619 105.16849515 1005.27676617 C101.39762613 1001.5032871 97.62671579 997.72984934 93.85578489 993.9564321 C62.5641137 962.64402198 31.27969569 931.32437282 0 900 C1.58753796 896.65524094 3.31447231 894.43629312 5.94509888 891.80766296 C6.76928818 890.97927917 7.59347748 890.15089539 8.44264221 889.29740906 C9.34860641 888.39706436 10.25457062 887.49671967 11.18798828 886.5690918 C12.15108261 885.60492412 13.11374373 884.64032355 14.07600403 883.67532349 C16.68954194 881.05693954 19.30928661 878.44484771 21.93031549 875.83396506 C24.67785341 873.0952238 27.42010473 870.35119849 30.16305542 867.60786438 C34.77489727 862.99695922 39.39059458 858.3899424 44.00878906 853.78540039 C49.33337695 848.47649611 54.65276293 843.16242603 59.96914685 837.84530705 C65.64250624 832.17126939 71.31967868 826.50105855 76.99795675 820.83194375 C78.62612387 819.20589866 80.2535878 817.57915264 81.88089371 815.95224571 C84.45090854 813.3832436 87.02348794 810.81683578 89.59798241 808.25232315 C90.98167149 806.8728985 92.36297809 805.49108526 93.7441864 804.10917664 C95.00584877 802.85391174 95.00584877 802.85391174 96.29299927 801.57328796 C97.01308733 800.85487575 97.73317539 800.13646353 98.4750843 799.39628124 C100.50309023 797.47159419 102.56019045 795.64343337 104.67851865 793.82183051 C108.84012231 790.18757826 112.77063523 786.36779628 116.66861725 782.45443058 C117.76639929 781.35837931 117.76639929 781.35837931 118.88635874 780.24018559 C121.33013706 777.79904731 123.7703418 775.35436862 126.21057129 772.90968323 C127.98267692 771.13801383 129.75500235 769.36656428 131.52752829 767.5953154 C135.37661799 763.74799405 139.22415456 759.89912978 143.07032013 756.04888535 C148.78938876 750.32376855 154.51133583 744.60153507 160.23386747 738.87987999 C169.86113663 729.25392322 179.4860808 719.62564491 189.10969543 709.99603462 C198.63628482 700.46352527 208.16391018 690.93205333 217.69291687 681.40196037 C218.28572337 680.80908513 218.87852988 680.21620988 219.48930022 679.60536872 C222.49995308 676.59437752 225.51062442 673.5834048 228.52130288 670.57243919 C249.83781763 649.25382484 271.15201369 627.93289369 292.46484375 606.6105957 C313.1680955 585.89815745 333.8724074 565.18677986 354.578125 544.47680664 C355.88049606 543.17416494 357.18286708 541.87152321 358.48523808 540.56888145 C369.06780153 529.98412918 379.65043811 519.39945004 390.23309243 508.81478862 C439.15868369 459.87981271 488.07892926 410.93949599 537 362 C271.185 361.505 271.185 361.505 0 361 C0 241.87 0 122.74 0 0 Z " fill="#FEFEFE" transform="translate(423,423)"/>
</svg>
