<?xml version="1.0" encoding="UTF-8"?>
<svg version="1.1" xmlns="http://www.w3.org/2000/svg" width="2000" height="2000">
<path d="M0 0 C660 0 1320 0 2000 0 C2000 660 2000 1320 2000 2000 C1340 2000 680 2000 0 2000 C0 1340 0 680 0 0 Z " fill="#000000" transform="translate(0,0)"/>
<path d="M0 0 C381.15 0 762.3 0 1155 0 C1155 381.15 1155 762.3 1155 1155 C1035.54 1155 916.08 1155 793 1155 C793 977.79 793 800.58 793 618 C786.66055098 623.50981818 786.66055098 623.50981818 780.61444855 629.26135296 C779.45006448 630.42236608 779.45006448 630.42236608 778.2621575 631.60683402 C777.43447487 632.43714367 776.60679224 633.26745331 775.75402832 634.12292385 C774.40045767 635.47476374 774.40045767 635.47476374 773.01954216 636.85391352 C770.52379554 639.3466085 768.03115662 641.84239061 765.53902988 644.33870393 C762.82394224 647.05723982 760.1059377 649.77285683 757.38830662 652.4888497 C752.62881629 657.24627001 747.87118096 662.00553905 743.11476326 666.76603127 C736.04216479 673.84467151 728.96669411 680.92043559 721.89063565 687.99561689 C709.9869358 699.89800357 698.08556287 711.80271438 686.18551636 723.70875359 C674.40372781 735.49646006 662.62090498 747.28313109 650.83670044 759.06842232 C650.10387291 759.80131859 649.37104538 760.53421486 648.61601096 761.2893201 C644.89431356 765.01135584 641.17259768 768.7333731 637.45087469 772.45538325 C611.09301597 798.81534213 584.73747626 825.1776185 558.38330078 851.54125977 C532.78128525 877.1524603 507.17821909 902.76260979 481.57373047 928.37133789 C480.7844271 929.16077278 479.99512373 929.95020768 479.18190208 930.76356484 C471.25535993 938.69142552 463.32879643 946.61926483 455.40221728 954.54708851 C439.25500025 970.69684171 423.10792578 986.84673744 406.9609375 1002.99671936 C406.21853218 1003.73926197 405.47612686 1004.48180458 404.71122441 1005.24684848 C355.13842809 1054.82884477 305.56895477 1104.41416321 256 1154 C252.54664191 1152.36667215 250.28509926 1150.5338916 247.57223129 1147.81832695 C246.24356147 1146.49563028 246.24356147 1146.49563028 244.88804984 1145.14621246 C243.90930617 1144.16176278 242.93065536 1143.17722078 241.9520874 1142.19259644 C240.9096123 1141.15099329 239.86669787 1140.10982968 238.82338166 1139.06906903 C235.95470948 1136.20487613 233.09232293 1133.33447211 230.2309041 1130.46303535 C227.14526031 1127.36876776 224.05385244 1124.28026858 220.96313477 1121.19107056 C215.60804979 1115.83703511 210.25664361 1110.47934522 204.90770721 1105.11916733 C197.17400527 1097.36922257 189.43479729 1089.62479564 181.69422725 1081.88171138 C169.13631232 1069.31941743 156.58287172 1056.75266213 144.03222656 1044.18310547 C131.83925518 1031.97178064 119.6441884 1019.76255473 107.44628906 1007.55615234 C106.31878108 1006.42785619 106.31878108 1006.42785619 105.16849515 1005.27676617 C101.39762613 1001.5032871 97.62671579 997.72984934 93.85578489 993.9564321 C62.5641137 962.64402198 31.27969569 931.32437282 0 900 C1.58012273 896.67278139 3.29017956 894.46057563 5.90713501 891.84562683 C6.72291016 891.0256572 7.5386853 890.20568756 8.37918091 889.36087036 C9.7241011 888.02437943 9.7241011 888.02437943 11.09619141 886.66088867 C12.04943364 885.70657308 13.00224266 884.75182458 13.95465088 883.79667664 C16.54133042 881.20515129 19.13421592 878.61991814 21.7283864 876.03589416 C24.44789734 873.32518036 27.16212118 870.60918203 29.87704468 867.89387512 C34.44180815 863.33004833 39.01042679 858.77010994 43.58154297 854.21264648 C48.8515991 848.95827351 54.11645359 843.69873538 59.37830603 838.43614787 C64.99376198 832.8200136 70.61303108 827.2077064 76.23340559 821.59649491 C77.84482166 819.98720071 79.45553468 818.37720574 81.06608963 816.76704979 C83.60983977 814.2243125 86.15615477 811.68417011 88.70438385 809.14592171 C90.07375914 807.78081005 91.4407528 806.41331061 92.80764771 805.04571533 C93.6403418 804.21728622 94.47303589 803.38885712 95.33096313 802.5353241 C96.04367685 801.82428622 96.75639057 801.11324835 97.49070168 800.38066387 C99.51283788 798.46218867 101.5646636 796.63987874 103.67656648 794.82378268 C107.84434204 791.18402965 111.78040193 787.35801563 115.68423462 783.43881321 C116.41777768 782.70642399 117.15132075 781.97403477 117.90709239 781.21945193 C120.35661414 778.77257031 122.80256223 776.32214811 125.24853516 773.87171936 C127.02476558 772.09592517 128.80121581 770.32035081 130.57786655 768.54497713 C134.43596865 764.68864342 138.29251757 760.83076672 142.14769554 756.97150993 C147.88016546 751.23299193 153.61551375 745.49735714 159.35144665 739.76230081 C169.00125472 730.11380514 178.64873779 720.46298788 188.29489136 710.8108387 C197.84380945 701.25600067 207.3937635 691.70220002 216.94509888 682.14977837 C217.53929173 681.55551678 218.13348458 680.96125518 218.74568328 680.34898567 C221.76337618 677.33095442 224.78108757 674.31294165 227.79880607 671.29493599 C249.16523511 649.92640735 270.52934547 628.55556188 291.89208984 607.18334961 C312.64384421 586.42240876 333.39665871 565.66252856 354.15087891 544.90405273 C355.45629795 543.59836305 356.76171695 542.29267334 358.06713593 540.9869836 C368.67446399 530.37746672 379.28186519 519.76802296 389.88928412 509.15859693 C438.92947813 460.10901824 487.96432648 411.05409875 537 362 C271.185 361.505 271.185 361.505 0 361 C0 241.87 0 122.74 0 0 Z " fill="#D8D8D8" transform="translate(423,423)"/>
</svg>
